<?xml version="1.0" encoding="UTF-8"?>
<svg id="Layer_1" data-name="Layer 1" xmlns="http://www.w3.org/2000/svg" viewBox="0 0 2000 542.61">
  <defs>
    <style>
      .cls-1 {
        fill: #c3ddfd;
      }
    </style>
  </defs>
  <path class="cls-1" d="M104.02,487.01v45.8H0V-.49h105.58v195.62c27.17-31.05,73.74-53.57,123.42-53.57,108.68,0,184.76,81.51,184.76,200.28s-76.08,200.28-184.76,200.28c-50.46,0-99.36-23.29-124.98-55.11ZM307.41,341.84c0-63.65-43.47-107.9-104.02-107.9s-103.25,44.25-103.25,107.9,43.47,107.9,103.25,107.9,104.02-45.02,104.02-107.9Z"/>
  <path class="cls-1" d="M428.42,490.88l43.47-70.64c26.4,23.29,60.55,36.49,94.71,37.27,37.26.78,58.22-12.42,58.22-37.27,0-62.87-183.98-24.06-183.98-159.91,0-69.87,61.33-118.77,152.15-118.77,52.79,0,96.26,17.86,123.43,38.81l-41.92,70.64c-18.63-14.75-45.03-26.39-76.85-26.39-34.16,0-52.79,12.42-52.79,31.83,0,59,183.2,21.74,183.2,160.69,0,69.87-59.77,124.98-156.04,124.98-61.33,0-111.79-20.96-143.61-51.24Z"/>
  <path class="cls-1" d="M764.44,379.1v-228.22h105.58v224.35c0,52.01,34.15,75.3,73.74,75.3s72.97-23.28,72.97-75.3v-224.35h105.57v228.22c0,107.13-83.06,163.02-178.54,163.02s-179.32-55.89-179.32-163.02Z"/>
  <path class="cls-1" d="M1199.84,150.87h101.69v46.58c23.29-38.81,61.33-55.9,100.14-55.9,10.09,0,20.96.78,31.05,3.88v92.38c-11.65-3.11-23.29-3.88-34.93-3.88-48.91,0-92.38,23.29-92.38,81.51v217.36h-105.58V150.87Z"/>
  <path class="cls-1" d="M1440.4,341.84c0-111.01,79.96-200.28,198.73-200.28,104.8,0,187.86,73.75,187.86,192.52,0,13.2,0,25.61-1.55,42.7h-275.58c10.87,46.57,42.7,79.18,104.02,79.18,35.71,0,62.1-12.42,83.83-36.49l58.23,61.33c-35.71,37.26-83.84,61.33-149.82,61.33-124.21,0-205.72-90.05-205.72-200.28ZM1726.08,303.03c-.78-45.8-37.27-79.96-85.4-79.96-55.89,0-83.83,34.94-92.37,79.96h177.77Z"/>
  <circle class="cls-1" cx="1917.33" cy="459.45" r="82.67"/>
</svg>